<?xml version="1.0" standalone="no"?><!DOCTYPE svg PUBLIC "-//W3C//DTD SVG 1.1//EN" "http://www.w3.org/Graphics/SVG/1.1/DTD/svg11.dtd"><svg t="1644225175128" class="icon" viewBox="0 0 1024 1024" version="1.1" xmlns="http://www.w3.org/2000/svg" p-id="4366" xmlns:xlink="http://www.w3.org/1999/xlink" width="128" height="128"><defs><style type="text/css"></style></defs><path d="M512 0C229.248 0 0 71.616 0 160v128C0 376.384 229.248 448 512 448s512-71.616 512-160v-128C1024 71.616 794.752 0 512 0z" p-id="4367"></path><path d="M512 544C229.248 544 0 472.384 0 384v192c0 88.384 229.248 160 512 160s512-71.616 512-160V384c0 88.384-229.248 160-512 160z" p-id="4368"></path><path d="M512 832c-282.752 0-512-71.616-512-160v192C0 952.384 229.248 1024 512 1024s512-71.616 512-160v-192c0 88.384-229.248 160-512 160z" p-id="4369"></path></svg>