<?xml version="1.0" standalone="no"?><!DOCTYPE svg PUBLIC "-//W3C//DTD SVG 1.1//EN" "http://www.w3.org/Graphics/SVG/1.1/DTD/svg11.dtd"><svg t="1644225291361" class="icon" viewBox="0 0 1024 1024" version="1.1" xmlns="http://www.w3.org/2000/svg" p-id="4888" xmlns:xlink="http://www.w3.org/1999/xlink" width="128" height="128"><defs><style type="text/css"></style></defs><path d="M864.425973 1023.936004 228.305731 1023.936004c-114.296856 0-130.871821-105.529404-133.111681-128.439973l-0.383976-0.575964 0.31998 0c-0.255984-2.367852-0.31998-4.031748-0.31998-4.031748l0-12.351228c-60.604212-36.093744-64.059996-115.320792-64.059996-115.320792L30.750078 126.328104C30.814074 3.967752 158.934067 0 158.934067 0l643.415787 0c64.63596 0 96.441972 38.269608 112.120992 72.63546 71.931504 28.47822 78.779076 117.496656 78.779076 117.496656l0 700.756203C993.249922 890.952315 974.56309 1023.936004 864.425973 1023.936004L864.425973 1023.936004 864.425973 1023.936004zM479.298044 256.687957l0 191.476033L222.994063 448.16399 222.994063 511.968002l256.303981 0 0 191.476033 256.303981-223.410037L479.298044 256.687957 479.298044 256.687957 479.298044 256.687957zM927.782014 129.015937l-64.059996 0 0 748.433223 0 17.470908-46.07712 0L158.934067 894.920067 158.934067 895.944003l0 62.844072 704.787951 0 64.059996 0L927.782014 129.015937 927.782014 129.015937zM927.782014 129.015937" p-id="4889"></path></svg>