<?xml version="1.0" standalone="no"?><!DOCTYPE svg PUBLIC "-//W3C//DTD SVG 1.1//EN" "http://www.w3.org/Graphics/SVG/1.1/DTD/svg11.dtd"><svg t="1644225574705" class="icon" viewBox="0 0 1024 1024" version="1.1" xmlns="http://www.w3.org/2000/svg" p-id="12737" xmlns:xlink="http://www.w3.org/1999/xlink" width="128" height="128"><defs><style type="text/css"></style></defs><path d="M987.428571 182.857143H804.571429v-64c0-5.028571-4.114286-9.142857-9.142858-9.142857h-64c-5.028571 0-9.142857 4.114286-9.142857 9.142857v64H553.142857v-64c0-5.028571-4.114286-9.142857-9.142857-9.142857h-64c-5.028571 0-9.142857 4.114286-9.142857 9.142857v64H301.714286v-64c0-5.028571-4.114286-9.142857-9.142857-9.142857h-64c-5.028571 0-9.142857 4.114286-9.142858 9.142857v64H36.571429c-20.228571 0-36.571429 16.342857-36.571429 36.571428v658.285715c0 20.228571 16.342857 36.571429 36.571429 36.571428h950.857142c20.228571 0 36.571429-16.342857 36.571429-36.571428V219.428571c0-20.228571-16.342857-36.571429-36.571429-36.571428zM411.428571 713.142857c0 5.028571-4.114286 9.142857-9.142857 9.142857H192c-5.028571 0-9.142857-4.114286-9.142857-9.142857v-54.857143c0-5.028571 4.114286-9.142857 9.142857-9.142857h210.285714c5.028571 0 9.142857 4.114286 9.142857 9.142857v54.857143z m0-155.428571c0 5.028571-4.114286 9.142857-9.142857 9.142857H192c-5.028571 0-9.142857-4.114286-9.142857-9.142857v-54.857143c0-5.028571 4.114286-9.142857 9.142857-9.142857h210.285714c5.028571 0 9.142857 4.114286 9.142857 9.142857v54.857143z m428-104.342857l-188.571428 261.371428a18.171429 18.171429 0 0 1-29.485714 0L490.857143 533.942857c-4.342857-6.057143 0-14.514286 7.428571-14.514286h62.742857c5.828571 0 11.314286 2.857143 14.742858 7.542858l60.342857 83.542857 118.514285-164.228572c3.428571-4.8 8.914286-7.542857 14.742858-7.542857H832c7.428571 0.114286 11.771429 8.571429 7.428571 14.628572z" p-id="12738"></path></svg>